# xmcd CD database file
#
# Track frame offsets:
#	150
#	23075
#	50475
#	69786
#	92132
#	118374
#	138578
#	161752
#	197209
#	224659
#	254443
#	281469
#
# Disc length: 4128 seconds
#
# Revision: 0
# Processed by: cddbd v1.4PL0 Copyright (c) Steve Scherf et al.
# Submitted via: CDex 1.50
#
DISCID=ba101e0c
DTITLE=(V.A) - Venus Records Sampler Vol.3
DYEAR=2003
DGENRE=Jazz
TTITLE0=Moonlight Becomes You<J Van Heusen>
TTITLE1=Elvira Madigan ~ Piano Concerto No.21 C Major K467<W. A. Mozart>
TTITLE2=Easy To Love<C. Porter>
TTITLE3=I Concentrate On You<C. Porter>
TTITLE4=Dear Old Stockholm<Trad>
TTITLE5=Charleston Rag<E. Blake>
TTITLE6=Estate<B. Martino>
TTITLE7=Wholly Cuts<C. Christien>
TTITLE8=Dark Eyes<H. Horlick, G. Stone>
TTITLE9=The Things We Did Last Summer<J.Styne>
TTITLE10=They Can't Take That Away From Me<G. Gershwin>
TTITLE11=Prelude No. 20 C Minor<F. Chopin>
EXTD=YEAR: 2003
EXTT0=
EXTT1=
EXTT2=
EXTT3=
EXTT4=
EXTT5=
EXTT6=
EXTT7=
EXTT8=
EXTT9=
EXTT10=
EXTT11=
PLAYORDER=
